<svg xmlns="http://www.w3.org/2000/svg" width="205" height="59" fill="none" viewBox="0 0 205 59"><path fill="#000" d="M129.449 32.17H125.6V20.416q-.002-.319-.002-.637c0-.181-.001-.361-.078-.53a.23.23 0 0 1-.024-.115c.024-.272-.079-.523-.133-.78a2.3 2.3 0 0 0-.236-.618c-.155-.284-.311-.57-.527-.817a3.4 3.4 0 0 0-.79-.672 4.2 4.2 0 0 0-.847-.387c-.197-.066-.401-.053-.587-.122-.339-.128-.683-.073-1.026-.079-.094-.001-.188.04-.282.06-.066.014-.132.03-.199.04-.504.07-.956.264-1.392.545a3.4 3.4 0 0 0-.93.909 2.7 2.7 0 0 0-.42.834c-.048.169-.12.33-.182.494l-.006.023c-.049.316-.112.631-.141.949-.025.265-.01.534-.01.801l-.001 11.512v.332c-.089.01-.168.024-.247.024q-1.695.003-3.39.001c-.245 0-.269-.028-.272-.285v-.118q.002-9.53-.003-19.06c0-.386.047-.46.437-.457 1.024.01 2.049.004 3.073.004.068 0 .136-.004.204.002.152.015.196.063.197.223.003.37 0 .739.002 1.108.001.09.014.18.021.27l.051.013c.079-.113.154-.23.238-.34.254-.331.576-.585.915-.81.303-.2.627-.362.954-.52.27-.13.571-.16.829-.315.012-.008.029-.008.044-.01.403-.026.794-.166 1.205-.133.351.028.708-.025 1.05.104.041.016.089.012.134.014.286.015.549.117.817.21.139.048.282.083.422.134.25.09.481.222.724.325.322.138.618.325.896.53.311.23.628.464.877.777.153.193.354.342.464.576.04.083.148.068.219-.013.224-.255.438-.522.677-.76a4.8 4.8 0 0 1 .892-.7q.264-.163.532-.318.144-.081.297-.144c.286-.121.571-.249.863-.354.181-.066.381-.074.56-.144.291-.114.606-.085.898-.184a.6.6 0 0 1 .179-.024c.587-.002 1.176-.026 1.761.008.264.016.532.07.798.107.218.03.426.13.64.194.178.053.361.089.535.153.235.087.471.18.695.295.321.165.642.334.944.533.271.178.533.38.769.605.384.365.762.74 1.041 1.207.171.284.385.545.517.847.142.327.326.64.392 1.003.031.171.118.33.175.496.018.051.021.107.033.16l.076.317c.006.023.019.044.023.067.042.268.09.535.121.805.035.296.058.593.078.89q.02.306.02.613v11.771q.001.06-.001.118c-.009.178-.031.2-.2.211q-.056.003-.113.001h-3.3c-.089 0-.178-.014-.286-.023-.006-.121-.016-.228-.016-.336l-.001-11.3c0-.259-.017-.52 0-.778.026-.398-.07-.78-.139-1.162-.051-.282-.198-.545-.301-.816-.209-.55-.585-.963-1.022-1.316-.233-.19-.481-.367-.775-.457-.168-.052-.33-.13-.496-.192-.049-.018-.103-.02-.155-.03-.153-.033-.305-.071-.459-.096-.103-.017-.21-.02-.315-.022-.143-.004-.287-.01-.429.002-.14.011-.278.045-.417.07-.059.01-.118.026-.178.03-.369.024-.699.173-1.031.33a3.2 3.2 0 0 0-1.03.76 3.4 3.4 0 0 0-.609.98c-.063.156-.135.307-.189.465-.03.087-.009.197-.05.274-.12.226-.067.48-.128.708-.11.411-.072.825-.073 1.237-.004 3.767-.002 7.533-.002 11.3v.358zM7.85 32.167H4.01q-.006-.14-.008-.277v-3.491L4 12.642c0-.414 0-.375.354-.375H7.54c.301.001.31.01.31.314l.001 1.061c0 .075.009.15.016.275.1-.112.172-.182.234-.261a4.4 4.4 0 0 1 1.019-.937c.288-.191.587-.363.91-.487l.87-.337q.022-.006.044-.008c.452-.067.9-.166 1.363-.129.283.022.572-.018.847.098.046.02.104.015.156.017.287.011.55.12.82.209.14.047.285.073.423.139.228.108.474.176.699.291q.64.329 1.21.782c.362.29.66.646.97.99.056.06.101.13.17.221.06-.044.132-.072.17-.127.296-.42.661-.763 1.05-1.086.316-.262.682-.436 1.014-.67.083-.057.184-.087.28-.125.24-.094.485-.182.724-.279.27-.11.552-.17.828-.25.2-.058.4-.06.594-.107.656-.164 1.317-.091 1.977-.084.132.002.263.046.395.07.037.008.075.022.11.018.323-.034.623.09.925.163.29.07.584.15.858.293.216.112.461.164.677.276.293.152.572.332.853.508.277.174.525.39.765.614q.368.341.689.731c.19.231.362.482.515.741.16.27.293.559.428.844.104.218.202.439.284.666.068.187.11.384.16.578q.1.405.194.811c.006.023.015.045.017.068.039.476.11.951.111 1.427.01 4.112.007 8.224.007 12.336 0 .077-.007.154-.012.246h-3.828q-.008-.154-.01-.3V27.36c-.001-2.515 0-5.032-.009-7.547a4.7 4.7 0 0 0-.106-.974c-.159-.72-.435-1.39-.902-1.953a2.8 2.8 0 0 0-.733-.616 3.8 3.8 0 0 0-.884-.402c-.5-.147-1.001-.239-1.52-.214-.143.006-.285-.006-.417.075-.036.022-.087.021-.132.025-.384.028-.73.175-1.074.344-.444.218-.805.53-1.125.918-.318.387-.508.827-.672 1.3-.224.65-.23 1.318-.23 1.989-.004 3.821-.002 7.642-.002 11.464q-.002.129-.003.259c-.001.096-.053.143-.14.15q-.09.006-.18.005h-3.39c-.17-.012-.193-.034-.202-.21-.003-.079 0-.157 0-.236q0-5.472-.002-10.945c0-.4-.02-.802-.007-1.202.01-.35-.062-.69-.142-1.018a5 5 0 0 0-.294-.82 3.5 3.5 0 0 0-1.017-1.295c-.24-.193-.494-.373-.794-.465-.162-.05-.316-.126-.475-.184-.056-.02-.118-.023-.176-.036q-.219-.049-.437-.094a1 1 0 0 0-.179-.021 21 21 0 0 0-.52-.003c-.164 0-.329-.01-.485.073-.056.03-.132.028-.199.033-.354.024-.67.175-.986.323-.284.132-.54.307-.778.512a2.7 2.7 0 0 0-.653.822c-.15.298-.323.594-.409.913a6 6 0 0 0-.17.795c-.164 1.221-.07 2.445-.076 3.667-.018 3.02-.006 6.039-.006 9.058zM61.864 16.065v.24c0 3.499.004 6.998-.004 10.497 0 .304.067.592.125.877a.83.83 0 0 0 .467.607c.115.052.226.096.353.119 1.13.206 2.268.052 3.402.1.118.004.237 0 .348 0 .054.203.063 3.4.015 3.662-.06.007-.126.02-.192.02l-4.678-.02c-.355 0-.69-.09-1.023-.212-.13-.048-.272-.045-.403-.123-.196-.116-.405-.201-.601-.325-.365-.23-.648-.536-.898-.882a2.9 2.9 0 0 1-.44-.899c-.054-.192-.126-.379-.19-.568a.1.1 0 0 1-.01-.046c.003-.432-.124-.847-.123-1.283.009-3.813.004-7.627.003-11.44v-.348c-.122-.01-.216-.027-.31-.027q-1.063-.002-2.125-.001h-.259c-.006-.094-.015-.162-.016-.23v-3.35c.002-.103.046-.163.15-.162h.182q1.027 0 2.056-.002c.096 0 .191-.016.317-.027.011-.51.004-1.002.005-1.494v-2.94c.176-.057 3.568-.07 3.844-.015v4.439c.11.014.196.036.283.036 1.348.002 2.697.005 4.045 0q2.598-.01 5.196-.025h.315V7.79c.103-.011.182-.028.261-.028q1.695-.002 3.39-.001.068-.001.135.004c.079.008.124.053.127.137q.005.117.005.236v3.774c0 .107.014.215.022.345.115.005.21.013.306.013h4.09c.23.004.248.019.25.254q.001.624 0 1.25v1.958c0 .084-.007.168-.011.277h-4.629c-.01.153-.027.282-.027.412q-.002 3.267-.001 6.534c0 1.132-.002 2.265.002 3.397q.002.52.033 1.037c.027.479.288.788.69.987q.02.009.043.01c.334.04.669.107 1.004.113.866.016 1.732.006 2.599.006h.281v3.66c-.06.008-.111.021-.162.02-1.611-.006-3.223-.01-4.835-.027-.298-.004-.587-.095-.87-.199-.145-.053-.299-.084-.44-.146-.598-.261-1.123-.628-1.474-1.213a7 7 0 0 1-.426-.819c-.08-.18-.087-.394-.158-.58-.143-.373-.066-.776-.17-1.157-.06-.22-.033-.469-.033-.704-.002-3.649 0-7.297-.002-10.946 0-.114-.013-.228-.02-.334-.303-.063-9.586-.062-9.814.005M96.042 19.504c-.016-.143-.032-.259-.04-.375-.014-.163-.008-.329-.099-.477-.026-.043-.028-.105-.03-.16-.01-.199-.094-.37-.177-.542a4 4 0 0 1-.148-.336c-.114-.297-.314-.537-.51-.768a2.8 2.8 0 0 0-.891-.691c-.236-.119-.495-.196-.741-.291-.288-.111-.6-.041-.87-.195-.412.003-.826-.074-1.232.057-.092.03-.195.02-.29.04-.11.022-.216.056-.324.086-.028.007-.058.029-.085.025-.177-.029-.315.085-.465.144-.33.13-.626.325-.898.56a3.8 3.8 0 0 0-.807 1c-.121.212-.184.462-.267.698-.045.128-.113.194-.24.195h-3.616c-.037 0-.073-.01-.1-.014-.017-.023-.035-.037-.033-.048q.055-.378.116-.756c.01-.06.029-.12.043-.18.05-.212.089-.426.15-.634.05-.168.126-.328.19-.492.09-.224.16-.46.272-.671.157-.3.328-.596.522-.87.344-.485.73-.927 1.196-1.298q.427-.34.882-.63.383-.245.81-.407c.278-.103.55-.22.825-.332a.3.3 0 0 1 .065-.018c.299-.033.585-.112.865-.223a.2.2 0 0 1 .066-.011c.594 0 1.174-.18 1.772-.132.263.021.528.001.79.016.156.01.308.057.464.077.141.017.285.014.427.032.117.016.231.05.347.076.037.009.072.022.109.03.226.047.454.082.676.143.149.04.288.117.433.174.144.057.291.106.435.166a7 7 0 0 1 1.017.533q.94.589 1.635 1.472c.176.223.338.459.493.698.198.306.353.636.49.978.086.213.169.423.226.647.044.178.125.346.183.52.02.058.015.125.027.186q.04.193.085.386c.008.038.025.075.028.113.035.507.128 1.007.127 1.52-.005 4.136-.001 8.272 0 12.407 0 .07-.006.14-.009.207-.166.058-3.548.073-3.842.013v-1.72l-.053-.023-.41.411a4 4 0 0 1-.836.654c-.232.132-.454.285-.688.414-.122.067-.259.108-.39.153-.345.118-.691.23-1.036.345q-.01.004-.023.004l-.977.138q-.322.045-.644.087-.09.01-.18.01-.363.004-.724.001c-.209-.002-.417.01-.623-.068-.116-.044-.254-.02-.38-.04-.154-.023-.307-.06-.46-.092-.03-.005-.059-.015-.089-.015-.304-.003-.575-.148-.862-.215-.265-.061-.496-.196-.747-.283a3 3 0 0 1-.668-.365 9 9 0 0 1-.739-.568 3.6 3.6 0 0 1-.559-.609 4.6 4.6 0 0 1-.495-.775c-.104-.218-.23-.426-.285-.67-.038-.163-.111-.318-.169-.477-.005-.014-.016-.027-.019-.042-.047-.26-.127-.52-.135-.78-.02-.605-.01-1.21-.004-1.815.001-.124.036-.248.06-.37.052-.25.102-.502.162-.75.036-.15.08-.3.138-.441.088-.217.188-.428.287-.64.187-.397.425-.76.704-1.092.274-.325.577-.617.916-.865.386-.28.785-.537 1.234-.7.278-.1.548-.225.825-.329.117-.044.243-.064.365-.092q.36-.08.719-.163.423-.1.846-.203.023-.007.044-.013c.259-.039.517-.084.776-.115.26-.031.529-.002.777-.12q.01-.003.022-.002c.433-.042.865-.087 1.298-.123.306-.026.613-.013.917-.1.17-.049.36-.015.54-.028q.696-.05 1.39-.11c.042-.004.082-.033.124-.051zm.041 3.692c-.063-.008-.1-.017-.137-.016q-.678.015-1.356.034c-.03 0-.062-.003-.09.007-.29.11-.594.082-.893.104-.142.01-.293-.007-.426.036-.229.076-.46.061-.692.076-.097.006-.196.008-.292.023-.184.03-.367.07-.551.1-.273.045-.547.08-.82.13-.153.027-.304.072-.456.112-.164.044-.33.083-.49.14-.154.053-.298.143-.454.186-.272.076-.513.217-.755.359-.556.326-.82.864-.93 1.484-.075.419-.022.849.127 1.247.185.495.536.845.998 1.067.126.06.264.094.394.147.25.1.508.19.774.192.87.008 1.742.103 2.604-.101.225-.054.453-.097.68-.145q.021-.006.041-.016c.142-.065.279-.144.424-.192.354-.12.66-.326.947-.56.352-.29.628-.64.853-1.054a4.5 4.5 0 0 0 .384-1.029c.09-.342.102-.71.122-1.068.02-.337.005-.676.004-1.014 0-.077-.006-.154-.01-.25M196.62 25.946c.179-.048 3.674-.053 3.904.003-.024.202.033.414-.078.61-.015.026-.017.06-.024.091-.048.236-.086.474-.146.706-.042.162-.116.314-.173.472-.05.135-.086.276-.146.406a9 9 0 0 1-.526 1.018 6.7 6.7 0 0 1-1.168 1.407 6.7 6.7 0 0 1-1.285.915 7 7 0 0 1-1.131.5c-.253.085-.509.154-.765.228-.479.138-.971.17-1.456.25-.429.071-.851.065-1.278.07-.164.002-.327.006-.487-.063-.094-.04-.208-.027-.313-.037-.2-.019-.408.007-.595-.102-.024-.014-.059-.013-.088-.013-.311-.006-.594-.124-.887-.213-.161-.05-.33-.079-.487-.15-.236-.105-.478-.198-.716-.302-.34-.15-.641-.366-.961-.549-.245-.14-.458-.35-.664-.552a12 12 0 0 1-.783-.846c-.164-.196-.326-.397-.432-.641-.071-.165-.198-.303-.267-.467-.141-.336-.34-.646-.409-1.015a1.3 1.3 0 0 0-.134-.416c-.071-.125-.064-.252-.09-.38-.052-.266-.12-.528-.178-.793-.018-.084-.023-.17-.03-.256-.159-1.93-.08-3.865-.087-5.798-.002-.548.047-1.099.099-1.645.025-.26.111-.513.169-.77.009-.038.024-.076.026-.114.018-.267.101-.512.206-.754.057-.133.084-.28.132-.418a6.4 6.4 0 0 1 .846-1.597c.356-.498.778-.94 1.263-1.312a7 7 0 0 1 1.117-.715c.219-.11.434-.227.655-.33.114-.053.237-.088.357-.123.178-.051.359-.094.538-.144.228-.065.455-.135.684-.202a.4.4 0 0 1 .066-.014c.926-.116 1.856-.193 2.787-.099.274.028.549.066.823.103.234.031.459.123.688.188.029.008.057.021.087.024.233.018.435.14.652.208q.331.103.635.265c.256.136.522.257.768.412.254.16.502.337.728.538.297.263.578.549.852.84.302.322.525.71.749 1.093.112.19.2.396.284.601.113.276.24.55.307.839.054.232.158.449.169.7.012.26.097.516.146.776.024.123.052.247.053.372q.018 2.31.031 4.623c0 .053-.012.107-.023.193-.498.024-.992.008-1.486.01-.497.004-.995.001-1.492.001h-8.971c-.014.097-.037.179-.037.26-.001.37-.012.74.013 1.109.023.34.069.68.192 1.002.046.12.08.246.121.37.208.629.569 1.153 1.077 1.544.316.243.655.47 1.063.544.18.032.351.122.528.177a.9.9 0 0 0 .244.038c.572.003 1.145.013 1.717-.005.196-.007.399-.067.585-.14.24-.094.487-.171.713-.309.273-.166.533-.343.767-.567.268-.256.46-.57.641-.889.13-.226.201-.49.31-.767zm.166-5.963q.007-.076.012-.159c.009-.275-.048-.54-.098-.81-.057-.312-.113-.615-.226-.916a4.7 4.7 0 0 0-.349-.738 2.9 2.9 0 0 0-.875-.942c-.257-.171-.516-.337-.816-.438-.304-.104-.601-.219-.925-.23a.2.2 0 0 1-.088-.018c-.153-.09-.321-.074-.485-.076-.136-.002-.272.008-.407-.002-.358-.027-.69.146-1.045.139-.021 0-.043.012-.064.02-.166.062-.329.13-.498.185-.334.106-.618.31-.901.51-.12.085-.215.206-.322.31a2.9 2.9 0 0 0-.689 1.045c-.12.31-.268.627-.266.98 0 .037-.019.075-.029.112-.1.344-.061.693-.057 1.037.269.05 7.954.04 8.128-.009M51.805 23.566c-.142.006-.253.014-.364.014H40.21q-.102-.001-.204.002c-.178.006-.211.032-.21.224.005.48-.002.96.036 1.438.021.266.127.524.185.789.05.229.152.433.245.643.175.391.431.717.73 1.01.307.3.674.505 1.055.677.181.083.384.116.577.169.718.195 1.45.108 2.175.083.2-.007.4-.11.597-.175.125-.041.246-.095.371-.139.49-.172.888-.503 1.223-.89.216-.248.424-.527.527-.869.061-.204.168-.393.26-.6.195-.046 3.719-.042 3.905.01.013.18.02.358-.068.525a.4.4 0 0 0-.034.11c-.042.23-.076.459-.125.685-.025.112-.075.217-.115.325-.088.237-.168.477-.265.71-.166.403-.37.785-.622 1.137-.197.274-.381.563-.61.805-.266.279-.567.523-.865.765a5.1 5.1 0 0 1-1.114.688c-.322.148-.644.298-.97.437-.13.054-.269.087-.406.118-.24.055-.487.082-.72.156-.352.11-.722.06-1.07.145-.487.12-.973.042-1.458.065-.303-.115-.63-.06-.932-.137-.2-.05-.4-.058-.596-.101-.194-.043-.377-.145-.57-.185a2.2 2.2 0 0 1-.512-.157c-.231-.113-.48-.17-.707-.307-.16-.097-.342-.164-.502-.27-.202-.135-.409-.26-.61-.395a5 5 0 0 1-.878-.787 10 10 0 0 1-.686-.839c-.157-.217-.283-.46-.409-.7a6 6 0 0 1-.284-.623 18 18 0 0 1-.329-.933c-.045-.139-.07-.286-.096-.43-.052-.306-.109-.612-.145-.92-.03-.248.002-.502-.084-.745-.027-.078-.014-.172-.014-.258q-.003-2.653.002-5.307c0-.138.046-.275.058-.414.017-.211.018-.424.038-.635.012-.13.045-.26.07-.389.01-.045.029-.09.037-.135.041-.245.072-.491.123-.734.033-.157.089-.31.142-.462.059-.165.125-.327.19-.489.125-.306.243-.615.43-.89.128-.185.221-.396.35-.58.313-.442.662-.85 1.074-1.199a9 9 0 0 1 1.027-.74c.256-.162.542-.271.82-.393q.397-.174.804-.324c.138-.052.284-.08.428-.116.196-.049.39-.12.589-.134.583-.04 1.159-.18 1.75-.137.247.018.497-.001.744.015.17.01.338.058.508.08.135.016.271.011.405.03.125.017.247.05.37.078.03.007.057.019.087.025.225.047.452.088.676.142.122.03.24.078.357.128.237.1.471.208.706.314.202.09.412.166.602.277q.354.207.68.46c.519.4.986.86 1.374 1.398q.488.678.807 1.465.206.512.345 1.044c.107.405.168.818.238 1.23.123.72.074 1.441.084 2.161.013.888.003 1.777.003 2.665zm-3.861-3.58c.016-.277-.024-.533-.065-.797a7 7 0 0 0-.232-1.014c-.127-.402-.328-.753-.559-1.091-.284-.416-.679-.706-1.097-.93-.383-.204-.797-.372-1.243-.393-.067-.003-.142-.001-.2-.032-.14-.078-.29-.07-.44-.07q-.315-.003-.632.001a1 1 0 0 0-.202.018c-.297.067-.594.131-.887.212a3 3 0 0 0-.52.192c-.159.075-.304.183-.46.27a2.4 2.4 0 0 0-.675.581 3.7 3.7 0 0 0-.689 1.263c-.066.189-.095.391-.153.583-.12.398-.077.805-.09 1.203.205.056 7.91.059 8.144.005M165.828 25.91h3.715q.078 0 .158.003c.104.008.162.072.184.175.087.42.284.784.52 1.132.256.378.588.675.962.9.202.12.418.25.669.289.202.032.394.128.592.19a.6.6 0 0 0 .179.022c.64.003 1.281.02 1.92-.003.254-.01.512-.075.752-.192.125-.061.266-.062.399-.13.436-.223.801-.532.979-.998.139-.36.225-.75.088-1.16-.073-.219-.127-.439-.265-.623-.224-.299-.489-.542-.836-.675-.138-.053-.269-.124-.403-.186-.02-.01-.039-.024-.06-.03-.211-.046-.422-.086-.632-.139-.244-.061-.486-.139-.731-.198-.239-.057-.482-.095-.721-.152-.224-.054-.445-.123-.667-.186-.021-.005-.042-.029-.061-.027-.231.022-.435-.097-.655-.14-.261-.05-.516-.135-.775-.197-.24-.058-.482-.1-.722-.157a5 5 0 0 1-.494-.137c-.16-.055-.314-.125-.471-.192-.21-.09-.423-.171-.626-.275a5 5 0 0 1-.566-.34 4.7 4.7 0 0 1-1.235-1.21 5.5 5.5 0 0 1-.543-1.023c-.125-.3-.188-.616-.295-.919a2.5 2.5 0 0 1-.12-.734 28 28 0 0 1 .002-1.815 2.3 2.3 0 0 1 .178-.788c.051-.127.083-.263.132-.392.081-.211.146-.434.259-.625.174-.296.365-.586.581-.848.487-.588 1.051-1.08 1.721-1.438a7.4 7.4 0 0 1 1.041-.476c.261-.091.529-.153.787-.24.22-.076.445-.06.658-.115.594-.156 1.196-.086 1.795-.095.231-.004.461.01.69.086.145.048.314.015.471.032.101.011.199.049.299.075.043.01.087.026.131.035.211.045.424.082.633.134.113.029.223.079.331.126.23.101.451.236.689.302.219.06.389.208.594.292.207.084.39.241.574.38.408.309.811.634 1.13 1.038.273.345.55.694.75 1.101.154.315.337.613.442.954.045.146.126.279.179.422q.067.184.106.377c.066.315.213.617.147.98-.071.005-.143.015-.216.015q-1.762 0-3.525.003c-.167 0-.255-.046-.338-.226-.226-.492-.498-.961-.918-1.31-.171-.143-.33-.314-.522-.411-.22-.111-.43-.257-.686-.296-.278-.043-.551-.128-.826-.191a1 1 0 0 0-.179-.023 23 23 0 0 0-.542-.006c-.384 0-.748.102-1.118.2-.23.06-.433.155-.636.264a1.74 1.74 0 0 0-.756.767c-.121.242-.211.504-.21.772.005.778.339 1.38 1 1.74.255.14.533.262.842.28.197.01.39.091.585.142l.322.082q.347.09.692.18c.028.007.055.04.08.038.247-.024.463.112.698.15.247.041.487.13.731.19.232.056.467.1.7.152.079.018.154.05.233.07.209.054.419.104.628.159.194.05.39.095.581.158.16.053.315.126.47.194.209.092.42.18.623.284.155.08.3.183.448.28.334.218.646.468.92.764.321.347.598.738.796 1.17.153.334.333.67.368 1.055.151.222.072.508.19.74.013.026.013.061.013.093.003.572.11 1.143.027 1.718-.009.061-.008.125-.011.188a4 4 0 0 1-.074.551c-.055.293-.154.564-.246.842a4.3 4.3 0 0 1-.399.83 4.95 4.95 0 0 1-1.347 1.466 7 7 0 0 1-.912.545c-.304.158-.639.231-.927.419q-.02.01-.043.013c-.217.05-.437.092-.652.152-.515.144-1.043.18-1.568.257-.482.07-.959.055-1.438.06-.117.002-.234-.038-.352-.054q-.19-.024-.381-.041c-.246-.024-.499.009-.732-.108-.026-.012-.06-.01-.09-.012-.307-.022-.596-.117-.886-.217-.133-.046-.271-.069-.406-.119a8.6 8.6 0 0 1-1.219-.577c-.66-.368-1.214-.86-1.698-1.446a5.6 5.6 0 0 1-.889-1.442c-.087-.212-.219-.408-.274-.628-.084-.336-.246-.645-.277-1-.023-.252-.118-.496-.175-.745-.02-.09-.022-.184-.037-.32zM157.756 30.438a4.7 4.7 0 0 1-1.009 1.058c-.344.26-.72.448-1.096.64-.211.107-.444.168-.668.247-.035.012-.075.004-.112.012-.306.069-.617.109-.924.166-.413.078-.814.096-1.222-.003-.08-.019-.165-.017-.247-.026-.208-.022-.423-.002-.617-.113-.024-.015-.058-.012-.088-.014-.272-.015-.52-.115-.769-.218-.115-.047-.239-.064-.358-.118a12 12 0 0 1-1.123-.58c-.667-.388-1.23-.9-1.73-1.487a6 6 0 0 1-.72-1.07 8 8 0 0 1-.48-1.055c-.078-.215-.158-.427-.21-.652-.048-.21-.12-.414-.179-.621-.016-.06-.021-.123-.033-.184-.029-.152-.063-.303-.087-.457-.019-.115-.025-.233-.036-.35-.147-1.543-.077-3.091-.086-4.637-.009-1.55-.002-3.098-.002-4.647v-3.703c0-.322.033-.36.331-.36h3.254c.115 0 .229-.005.328.12v.305l.003 11.816c0 .165.001.33.013.495.007.1.036.199.057.298.012.053.042.105.043.157.008.308.115.584.219.868.14.385.319.738.577 1.045.147.175.302.345.471.497.119.107.263.188.402.268.115.066.241.108.357.17.292.158.613.222.926.304.158.04.33.03.496.029.399-.002.799.007 1.196-.023.234-.017.468-.071.685-.188.109-.06.238-.08.354-.128.462-.19.859-.486 1.183-.871a3.7 3.7 0 0 0 .507-.824c.125-.264.164-.558.303-.812a.1.1 0 0 0 .014-.044c.041-.372.115-.744.116-1.116.009-3.955.007-7.91.008-11.864v-.188c.001-.296.014-.313.287-.313h3.3q.045.002.09 0c.124-.008.18.066.192.18.009.087.007.174.007.26l-.001 19.081c0 .123-.012.245-.017.36-.26.055-3.662.046-3.858-.011v-.553c0-.187.005-.378-.002-.566-.007-.183.035-.372-.045-.58M83.68 7.719V4h15.786v3.703c-.166.052-15.469.069-15.786.015M85.294 55V43.364h1.699v4.324h.102q.148-.273.426-.631.28-.358.773-.625.495-.273 1.307-.273 1.056 0 1.886.534.83.535 1.301 1.54.478 1.005.478 2.42t-.472 2.427q-.471 1.005-1.295 1.55-.825.54-1.881.54-.795 0-1.301-.267a2.5 2.5 0 0 1-.784-.625 5 5 0 0 1-.438-.636h-.142V55zm1.665-4.364q0 .921.267 1.614t.773 1.085q.506.387 1.238.387.762 0 1.273-.404.51-.41.773-1.108.267-.699.267-1.574a4.3 4.3 0 0 0-.262-1.55q-.256-.689-.772-1.086-.511-.398-1.279-.398-.738 0-1.25.381-.506.38-.767 1.063-.261.681-.261 1.59m12.476 4.54q-1.29 0-2.222-.551a3.74 3.74 0 0 1-1.432-1.562q-.5-1.012-.5-2.37 0-1.341.5-2.363a3.9 3.9 0 0 1 1.41-1.597q.908-.574 2.124-.574.74 0 1.432.244.693.245 1.244.767.552.524.87 1.358.318.83.318 2.017v.603h-6.937v-1.273h5.272q0-.67-.273-1.187a2.05 2.05 0 0 0-.767-.824q-.488-.301-1.147-.301-.717 0-1.25.352a2.36 2.36 0 0 0-.819.909q-.284.557-.284 1.21v.994q0 .876.307 1.489.313.614.87.938.556.318 1.3.318.484 0 .881-.137.399-.142.688-.42.29-.279.443-.688l1.608.29q-.194.71-.693 1.245-.495.528-1.244.823-.745.29-1.7.29m10.203-8.903v1.363h-4.767v-1.363zm-3.489-2.091h1.699v8.255q0 .495.148.745a.77.77 0 0 0 .38.335q.24.085.517.085.205 0 .358-.028.154-.029.239-.046l.307 1.404a3 3 0 0 1-.421.113 3.3 3.3 0 0 1-.681.069 3 3 0 0 1-1.25-.239 2.14 2.14 0 0 1-.938-.773q-.358-.523-.358-1.312zm8.408 11.011a3.6 3.6 0 0 1-1.5-.307 2.53 2.53 0 0 1-1.063-.903q-.386-.591-.386-1.449 0-.738.284-1.216.284-.477.767-.755a4 4 0 0 1 1.08-.421q.596-.142 1.216-.216l1.272-.148q.489-.062.711-.198.22-.137.221-.444v-.04q0-.744-.42-1.153-.415-.41-1.239-.409-.858 0-1.352.38-.489.376-.676.836l-1.597-.364q.284-.795.83-1.284.55-.495 1.267-.716a5 5 0 0 1 1.505-.227q.523 0 1.108.125.591.12 1.103.443.516.324.846.926.33.597.33 1.552V55h-1.659v-1.193h-.069q-.164.33-.494.648t-.847.528-1.238.21m.369-1.363q.704 0 1.205-.279.505-.279.767-.727.267-.455.267-.972v-1.125q-.091.091-.353.17-.255.075-.585.131-.329.052-.642.097-.312.04-.523.068-.493.063-.903.21-.403.148-.648.427-.238.272-.238.727 0 .63.466.954.465.319 1.187.319"/></svg>