<svg width="132" height="19" viewBox="0 0 132 19" fill="none" xmlns="http://www.w3.org/2000/svg">
<path d="M11.7025 10.5614C11.7025 8.85615 12.8888 8.09004 14.0503 8.09004C15.2118 8.09004 16.398 8.85615 16.398 10.5614V18H19.6602V10.4378C19.6602 6.70611 17.2877 4.90205 14.0503 4.90205C12.2957 4.90205 10.9859 5.47045 10.0715 6.58254C9.1818 5.39631 7.97086 4.90205 6.63635 4.90205C5.52426 4.90205 4.36275 5.44574 3.74492 6.3107V5.24803H0.482787V18H3.74492V10.5614C3.74492 8.85615 4.93115 8.09004 6.09266 8.09004C7.25418 8.09004 8.44041 8.85615 8.44041 10.5614V18H11.7025V10.5614ZM33.4173 12.7361V10.7591C33.4173 7.22508 31.3908 4.90205 27.7332 4.90205C24.0757 4.90205 22.0492 7.22508 22.0492 10.7591V12.3901C22.0492 15.9241 24.0757 18.2471 27.7332 18.2471C30.8471 18.2471 32.7747 16.5666 33.2937 13.8976H29.9821C29.6609 14.7626 28.87 15.3063 27.7332 15.3063C26.1763 15.3063 25.3114 14.3177 25.3114 12.8102V12.7361H33.4173ZM27.7332 7.84291C29.1913 7.84291 30.0316 8.68316 30.1304 10.0177V10.0424H25.3114V10.0177C25.4349 8.70787 26.2752 7.84291 27.7332 7.84291ZM40.754 15.0591C39.9631 15.0591 39.8149 14.639 39.8149 14.0459V8.18889H42.9534V5.24803H39.8149V2.3566H36.5527V5.24803H34.7487V8.18889H36.5527V14.7379C36.5527 16.7891 37.5413 18 39.8149 18H42.9534V15.0591H40.754ZM49.8524 15.0591C49.0616 15.0591 48.9134 14.639 48.9134 14.0459V8.18889H52.0519V5.24803H48.9134V2.3566H45.6512V5.24803H43.8472V8.18889H45.6512V14.7379C45.6512 16.7891 46.6397 18 48.9134 18H52.0519V15.0591H49.8524ZM61.8424 9.72111C59.9147 9.86938 57.3693 10.0671 56.1089 10.6602C54.3296 11.5005 53.687 12.6125 53.687 14.466C53.687 16.8138 55.417 18.2471 58.3331 18.2471C60.2854 18.2471 61.2987 17.5057 61.8918 16.5419V18H65.1539V10.7591C65.1539 7.22508 63.1274 4.90205 59.4699 4.90205C56.3561 4.90205 54.4531 6.58254 53.9342 9.25156H57.221C57.5423 8.3866 58.3331 7.84291 59.4699 7.84291C60.8044 7.84291 61.6199 8.55959 61.8424 9.69639V9.72111ZM57.6411 13.008C58.259 12.6867 60.0383 12.5384 61.8918 12.4148V12.835C61.8918 14.4413 60.5573 15.3804 58.8768 15.3804C57.4187 15.3804 56.9492 14.7132 56.9492 14.0953C56.9492 13.5516 57.0974 13.2798 57.6411 13.008ZM55.4664 0.997376V3.56754H63.8936V0.997376H55.4664ZM84.3456 10.5614C84.3456 8.85615 85.5318 8.09004 86.6933 8.09004C87.8548 8.09004 89.0411 8.85615 89.0411 10.5614V18H92.3032V10.4378C92.3032 6.70611 89.9307 4.90205 86.6933 4.90205C84.9387 4.90205 83.6289 5.47045 82.7145 6.58254C81.8248 5.39631 80.6139 4.90205 79.2794 4.90205C78.1673 4.90205 77.0058 5.44574 76.388 6.3107V5.24803H73.1258V18H76.388V10.5614C76.388 8.85615 77.5742 8.09004 78.7357 8.09004C79.8972 8.09004 81.0835 8.85615 81.0835 10.5614V18H84.3456V10.5614ZM100.525 15.0591C99.3383 15.0591 98.1768 14.293 98.1768 12.5878V5.24803H94.9147V12.7114C94.9147 16.5419 97.4107 18.2471 99.7832 18.2471C101.34 18.2471 102.329 17.481 102.872 16.6161V18H106.134V5.24803H102.872V12.5878C102.872 14.293 101.711 15.0591 100.525 15.0591ZM113.756 18.2471C116.425 18.2471 118.723 17.1598 118.723 14.3177C118.723 11.6734 117.018 10.7096 115.634 10.3884L112.767 9.74582C112.223 9.62225 111.778 9.35041 111.778 8.80672C111.803 8.21361 112.347 7.84291 113.286 7.84291C114.102 7.84291 114.818 8.21361 114.991 9.02914H118.327C118.105 6.1377 115.98 4.90205 113.385 4.90205C110.765 4.90205 108.516 6.33541 108.516 8.83143C108.516 11.3275 110.271 12.4148 111.655 12.7361L114.324 13.3292C115.09 13.5022 115.461 13.7988 115.461 14.3177C115.461 15.158 114.497 15.3063 113.854 15.3063C112.792 15.3063 111.63 14.8614 111.482 13.8729H108.22C108.343 16.8879 111.111 18.2471 113.756 18.2471ZM131.859 12.7361V10.7591C131.859 7.22508 129.833 4.90205 126.175 4.90205C122.518 4.90205 120.491 7.22508 120.491 10.7591V12.3901C120.491 15.9241 122.518 18.2471 126.175 18.2471C129.289 18.2471 131.217 16.5666 131.736 13.8976H128.424C128.103 14.7626 127.312 15.3063 126.175 15.3063C124.619 15.3063 123.754 14.3177 123.754 12.8102V12.7361H131.859ZM126.175 7.84291C127.634 7.84291 128.474 8.68316 128.573 10.0177V10.0424H123.754V10.0177C123.877 8.70787 124.717 7.84291 126.175 7.84291Z" fill="white"/>
</svg>
